<svg width="16" height="16" viewBox="0 0 16 16" fill="none" xmlns="http://www.w3.org/2000/svg">
<path d="M0 3C0 2.44771 0.447715 2 1 2H8C8.55228 2 9 2.44772 9 3V13H1C0.447715 13 0 12.5523 0 12V3Z" fill="#27AE60"/>
<path d="M9 4H11.5509C11.8366 4 12.1086 4.12215 12.2983 4.33564L14.7474 7.09084C14.9101 7.27389 15 7.51029 15 7.7552V12C15 12.5523 14.5523 13 14 13H9V4Z" fill="#27AE60"/>
<path d="M6 12.9597C6 14.3404 4.88071 15.4597 3.5 15.4597C2.11929 15.4597 1 14.3404 1 12.9597C1 11.579 2.11929 10.4597 3.5 10.4597C4.88071 10.4597 6 11.579 6 12.9597Z" fill="white"/>
<path fill-rule="evenodd" clip-rule="evenodd" d="M3.5 14.0597C4.10751 14.0597 4.6 13.5672 4.6 12.9597C4.6 12.3522 4.10751 11.8597 3.5 11.8597C2.89249 11.8597 2.4 12.3522 2.4 12.9597C2.4 13.5672 2.89249 14.0597 3.5 14.0597ZM3.5 15.4597C4.88071 15.4597 6 14.3404 6 12.9597C6 11.579 4.88071 10.4597 3.5 10.4597C2.11929 10.4597 1 11.579 1 12.9597C1 14.3404 2.11929 15.4597 3.5 15.4597Z" fill="#27AE60"/>
<path d="M14.3827 12.9597C14.3827 14.3404 13.2634 15.4597 11.8827 15.4597C10.502 15.4597 9.38269 14.3404 9.38269 12.9597C9.38269 11.579 10.502 10.4597 11.8827 10.4597C13.2634 10.4597 14.3827 11.579 14.3827 12.9597Z" fill="white"/>
<path fill-rule="evenodd" clip-rule="evenodd" d="M11.8827 14.0597C12.4902 14.0597 12.9827 13.5672 12.9827 12.9597C12.9827 12.3522 12.4902 11.8597 11.8827 11.8597C11.2752 11.8597 10.7827 12.3522 10.7827 12.9597C10.7827 13.5672 11.2752 14.0597 11.8827 14.0597ZM11.8827 15.4597C13.2634 15.4597 14.3827 14.3404 14.3827 12.9597C14.3827 11.579 13.2634 10.4597 11.8827 10.4597C10.502 10.4597 9.38269 11.579 9.38269 12.9597C9.38269 14.3404 10.502 15.4597 11.8827 15.4597Z" fill="#27AE60"/>
<path d="M10 6H11L13 8V9H10V6Z" fill="white"/>
<path d="M14 11H15C15.5523 11 16 11.4477 16 12C16 12.5523 15.5523 13 15 13H14V11Z" fill="#27AE60"/>
</svg>
