<svg width="24" height="24" viewBox="0 0 24 24" fill="none" xmlns="http://www.w3.org/2000/svg">
<path d="M1.3934 18.3639C-0.168698 16.8019 -0.168698 14.2692 1.3934 12.7071L12.7071 1.39339C14.2692 -0.16871 16.8019 -0.16871 18.364 1.39339L22.6066 5.63603C24.1687 7.19812 24.1687 9.73078 22.6066 11.2929L11.2929 22.6066C9.7308 24.1687 7.19814 24.1687 5.63604 22.6066L1.3934 18.3639Z" fill="#27AE60"/>
<path d="M8.26577 20.3926C8.63723 20.0212 8.63723 19.5849 8.23629 19.1839L6.54117 17.4888L6.56475 17.4652L9.99038 17.9841C10.409 18.0489 10.6773 17.9811 10.9161 17.7423C11.2875 17.3709 11.2875 16.964 10.9131 16.5896L7.70859 13.3851C7.30766 12.9842 6.8743 12.9812 6.49989 13.3556C6.12844 13.7271 6.12844 14.1634 6.52937 14.5643L8.18912 16.2241L8.16554 16.2477L4.78708 15.7524C4.36846 15.6934 4.09134 15.7642 3.86434 15.9912C3.48109 16.3744 3.4752 16.7813 3.85255 17.1586L7.05707 20.3631C7.45801 20.7641 7.89137 20.767 8.26577 20.3926Z" fill="white"/>
<path d="M17.3022 11.3565C17.6973 10.9614 17.7268 10.5251 17.3936 9.96206L16.0198 7.62131L16.0434 7.59772L18.3842 8.97151C18.9649 9.31054 19.3777 9.28106 19.7874 8.87128C20.1766 8.48214 20.2002 8.06941 19.8729 7.49454L17.8594 4.00111C17.7415 3.79474 17.5941 3.59428 17.485 3.4852C17.1313 3.13143 16.7008 3.15502 16.3117 3.54416C15.9845 3.87139 15.9697 4.2458 16.2704 4.6939L18.0422 7.3383L18.0186 7.36188L15.218 5.62843C14.817 5.38079 14.4456 5.41027 14.139 5.71687C13.8206 6.03526 13.7911 6.37723 14.0505 6.79586L15.784 9.5965L15.7604 9.62008L13.116 7.84831C12.6679 7.54761 12.2935 7.56235 11.9663 7.88958C11.5771 8.27872 11.5535 8.70914 11.9073 9.0629C12.0193 9.17493 12.2257 9.32233 12.4232 9.43731L15.9049 11.4449C16.4915 11.784 16.9013 11.7574 17.3022 11.3565Z" fill="white"/>
<path d="M12.7627 15.7484L14.6465 13.8646C14.9826 13.5285 15.018 13.1335 14.6996 12.8151C14.3812 12.4967 13.9803 12.538 13.6501 12.8682L12.3913 14.127L11.7103 13.446L12.919 12.2373C13.2226 11.9336 13.2492 11.5828 12.9632 11.2968C12.6773 11.0109 12.3205 11.0433 12.0228 11.3411L10.8141 12.5498L10.1301 11.8658L11.389 10.607C11.7191 10.2768 11.7604 9.87589 11.442 9.5575C11.1236 9.23911 10.7286 9.27448 10.3925 9.61056L8.50872 11.4944C8.11073 11.8923 8.11957 12.3552 8.5382 12.7738L11.4833 15.7189C11.9019 16.1375 12.3648 16.1464 12.7627 15.7484Z" fill="white"/>
</svg>
