<svg width="120" height="28" viewBox="0 0 120 28" fill="none" xmlns="http://www.w3.org/2000/svg">
<g clip-path="url(#clip0_4168_2168)">
<path d="M47.818 23.13L46.931 20.205H40.3313L39.4443 23.13H35L41.0418 4.5H46.2205L52.2623 23.13H47.818ZM41.5473 16.21H45.7102L43.6311 9.37L41.5473 16.21Z" fill="black"/>
<path d="M73.5874 9.825H77.3927V23.13H73.5874V21.88C72.7004 22.97 71.432 23.5 69.8059 23.5C68.1321 23.5 66.7111 22.835 65.5142 21.475C64.322 20.12 63.7355 18.44 63.7355 16.47C63.7355 14.5 64.3173 12.85 65.5142 11.495C66.7063 10.14 68.1273 9.445 69.8059 9.445C71.432 9.445 72.7004 9.975 73.5874 11.07V9.825V9.825ZM70.5689 19.725C71.4558 19.725 72.195 19.43 72.7529 18.845C73.3108 18.26 73.5921 17.46 73.5921 16.475C73.5921 15.49 73.3108 14.69 72.7529 14.105C72.195 13.52 71.4606 13.225 70.5689 13.225C69.6819 13.225 68.9428 13.52 68.3849 14.105C67.8269 14.69 67.5456 15.49 67.5456 16.475C67.5456 17.46 67.8269 18.26 68.3849 18.845C68.9428 19.43 69.6819 19.725 70.5689 19.725Z" fill="black"/>
<path d="M90.4872 10.915C91.4028 11.9 91.8558 13.23 91.8558 14.96V23.13H88.0505V15.545C88.0505 13.975 87.1349 13.125 85.8426 13.125C84.3978 13.125 83.4822 14.055 83.4822 15.865V23.13H79.6769V9.825H83.4822V11.075C84.2452 9.985 85.4612 9.45 87.1111 9.45C88.4558 9.45 89.5955 9.93 90.4872 10.915Z" fill="black"/>
<path d="M100.067 23.5C98.1885 23.5 96.591 22.835 95.294 21.475C94.0017 20.12 93.3389 18.44 93.3389 16.47C93.3389 14.5 93.9969 12.85 95.294 11.495C96.5863 10.14 98.1885 9.445 100.067 9.445C101.946 9.445 103.544 10.135 104.841 11.495C106.133 12.85 106.796 14.5 106.796 16.47C106.796 18.44 106.138 20.115 104.841 21.475C103.548 22.835 101.946 23.5 100.067 23.5ZM100.067 19.615C100.907 19.615 101.589 19.325 102.146 18.735C102.704 18.15 102.986 17.405 102.986 16.475C102.986 15.545 102.704 14.8 102.146 14.215C101.589 13.63 100.902 13.335 100.067 13.335C99.2328 13.335 98.5461 13.625 97.9882 14.215C97.4303 14.8 97.149 15.545 97.149 16.475C97.149 17.405 97.4303 18.15 97.9882 18.735C98.5461 19.325 99.2328 19.615 100.067 19.615Z" fill="black"/>
<path d="M115.785 9.825H120L115.303 23.13H110.987L106.29 9.825H110.506L113.148 18.26L115.785 9.825Z" fill="black"/>
<path d="M58.8381 14.88C60.5882 15.28 62.901 16.235 62.8724 19.14C62.8724 20.575 62.3669 21.67 61.3512 22.415C60.3355 23.13 59.0957 23.5 57.5983 23.5C54.9327 23.5 53.5259 22.575 52.391 20.82L55.2808 18.49C55.8101 19.63 56.2583 20.03 57.4314 20.03C58.347 20.03 58.9669 19.67 58.9669 19.11C58.9669 18.58 57.975 18.26 56.759 17.94C55.009 17.435 52.7248 16.53 52.7248 13.815C52.7248 12.43 53.2065 11.365 54.1459 10.595C55.1091 9.825 56.3013 9.45 57.6985 9.45C59.8062 9.45 61.3369 10.51 62.2334 11.665L59.439 14.095C59.0337 13.325 58.6331 12.87 57.7175 12.84C57.007 12.82 56.6303 13.2 56.6303 13.705C56.6303 14.24 57.6222 14.535 58.8381 14.88Z" fill="black"/>
</g>
<g clip-path="url(#clip1_4168_2168)">
<path d="M28 12.8042L26.3232 7.66974L19.216 7.27928L16.6574 0.5H11.3185L8.75994 7.27928L1.672 7.66974L0 12.8042L5.53158 17.3482L3.68611 24.3129L7.99862 27.5049L13.988 23.5759L19.958 27.4902L24.2705 24.2983L22.4443 17.3482L28 12.8042ZM19.2304 21.9653L14.0024 18.8319L8.76958 21.9653L10.0946 15.9572L5.5364 11.8867L11.5835 11.3059L13.9976 5.65889L16.4116 11.3059L22.4588 11.8867L17.9005 15.9572L19.2304 21.9653Z" fill="#EE2459"/>
</g>
<defs>
<clipPath id="clip0_4168_2168">
<rect width="85" height="19" fill="white" transform="translate(35 4.5)"/>
</clipPath>
<clipPath id="clip1_4168_2168">
<rect width="28" height="27" fill="white" transform="translate(0 0.5)"/>
</clipPath>
</defs>
</svg>
