<svg width="24" height="24" viewBox="0 0 24 24" fill="none" xmlns="http://www.w3.org/2000/svg">
<path d="M2.39999 7C2.39999 6.44771 2.84771 6 3.39999 6H20.6C21.1523 6 21.6 6.44772 21.6 7V10.8H2.39999V7Z" fill="#512B58"/>
<path d="M3.60001 12H20.4V20.6C20.4 21.1523 19.9523 21.6 19.4 21.6H4.60001C4.04772 21.6 3.60001 21.1523 3.60001 20.6V12Z" fill="#512B58"/>
<path fill-rule="evenodd" clip-rule="evenodd" d="M12.1926 7.39258C12.1926 7.39258 9.22281 8.6653 6.92147 6.36396C5.74989 5.19239 5.74989 3.29289 6.92147 2.12132C8.09304 0.949747 9.99253 0.949747 11.1641 2.12132C13.4654 4.42266 12.1926 7.39258 12.1926 7.39258ZM10.5328 5.73274C10.5373 5.67684 10.5405 5.6194 10.5422 5.56067C10.5611 4.92539 10.4129 4.19854 9.74989 3.53553C9.35937 3.14501 8.7262 3.14501 8.33568 3.53553C7.94515 3.92606 7.94515 4.55922 8.33568 4.94975C8.99872 5.61279 9.72558 5.76097 10.3608 5.74215C10.4195 5.74041 10.4769 5.73718 10.5328 5.73274Z" fill="#512B58"/>
<path fill-rule="evenodd" clip-rule="evenodd" d="M11.7213 7.39258C11.7213 7.39258 14.6911 8.6653 16.9924 6.36396C18.164 5.19239 18.164 3.29289 16.9924 2.12132C15.8208 0.949747 13.9213 0.949747 12.7498 2.12132C10.4484 4.42266 11.7213 7.39258 11.7213 7.39258ZM13.3811 5.73274C13.3766 5.67684 13.3734 5.6194 13.3716 5.56067C13.3528 4.92539 13.501 4.19854 14.164 3.53553C14.5545 3.14501 15.1877 3.14501 15.5782 3.53553C15.9687 3.92606 15.9687 4.55922 15.5782 4.94975C14.9152 5.61279 14.1883 5.76097 13.5531 5.74215C13.4944 5.74041 13.4369 5.73718 13.3811 5.73274Z" fill="#512B58"/>
</svg>
