<svg width="28" height="28" viewBox="0 0 28 28" fill="none" xmlns="http://www.w3.org/2000/svg">
<path fill-rule="evenodd" clip-rule="evenodd" d="M14.6857 2.67434L2.6535 14.7065L13.2023 25.2553L25.2345 13.2231L24.2425 3.66626L14.6857 2.67434ZM1.23929 13.2923C0.458242 14.0734 0.458241 15.3397 1.23929 16.1208L11.7881 26.6695C12.5691 27.4506 13.8354 27.4506 14.6165 26.6695L26.6487 14.6373C27.0747 14.2113 27.286 13.6159 27.2238 13.0166L26.2319 3.45978C26.1342 2.51858 25.3902 1.77464 24.449 1.67695L14.8922 0.685022C14.2929 0.622822 13.6975 0.834094 13.2715 1.26012L1.23929 13.2923Z" fill="#1A1A1A"/>
<path d="M17.4664 8.92609C17.8573 8.53517 18.4911 8.53517 18.8821 8.92609C19.273 9.31702 19.273 9.95083 18.8821 10.3418L12.4329 16.7909C12.042 17.1818 11.4082 17.1818 11.0173 16.7909C10.6264 16.3999 10.6264 15.7661 11.0173 15.3752L17.4664 8.92609Z" fill="#1A1A1A"/>
<path d="M19.4776 15.7178C19.4776 16.6392 18.7307 17.3862 17.8093 17.3862C16.8879 17.3862 16.1409 16.6392 16.1409 15.7178C16.1409 14.7964 16.8879 14.0494 17.8093 14.0494C18.7307 14.0494 19.4776 14.7964 19.4776 15.7178Z" fill="#1A1A1A"/>
<path d="M13.9164 10.1565C13.9164 11.078 13.1694 11.8249 12.248 11.8249C11.3266 11.8249 10.5797 11.078 10.5797 10.1565C10.5797 9.23513 11.3266 8.48817 12.248 8.48817C13.1694 8.48817 13.9164 9.23513 13.9164 10.1565Z" fill="#1A1A1A"/>
</svg>
