<svg width="24" height="24" viewBox="0 0 24 24" fill="none" xmlns="http://www.w3.org/2000/svg">
<path d="M1.41421 14.9132C0.633165 14.1322 0.633165 12.8659 1.41421 12.0848L10.5314 2.9676C10.9511 2.54789 11.5356 2.33629 12.1267 2.39003L19.0057 3.01539C19.9672 3.1028 20.729 3.8646 20.8164 4.8261L21.4417 11.7051C21.4955 12.2962 21.2839 12.8806 20.8642 13.3003L11.747 22.4176C10.9659 23.1986 9.69958 23.1986 8.91853 22.4176L1.41421 14.9132Z" fill="#27AE60"/>
<path d="M14.192 8.39372C14.5434 8.04225 15.1133 8.04225 15.4648 8.39372C15.8162 8.74519 15.8162 9.31504 15.4648 9.66651L9.66649 15.4648C9.31502 15.8163 8.74517 15.8163 8.3937 15.4648C8.04223 15.1133 8.04223 14.5435 8.3937 14.192L14.192 8.39372Z" fill="white"/>
<path d="M16 14.5C16 15.3284 15.3284 16 14.5 16C13.6716 16 13 15.3284 13 14.5C13 13.6716 13.6716 13 14.5 13C15.3284 13 16 13.6716 16 14.5Z" fill="white"/>
<path d="M11 9.5C11 10.3284 10.3284 11 9.5 11C8.67157 11 8 10.3284 8 9.5C8 8.67157 8.67157 8 9.5 8C10.3284 8 11 8.67157 11 9.5Z" fill="white"/>
</svg>
